SplineFontDB: 3.2
FontName: Johnston-V1
FullName: Johnston V1
FamilyName: Johnston
Weight: Regular
Copyright: Copyright (c) 2023, Ishaan Sen and Sean Johnston. 
UComments: "2023-9-29: Created with FontForge (http://fontforge.org)"
Version: 001.000
ItalicAngle: 0
UnderlinePosition: -102.4
UnderlineWidth: 51.2
Ascent: 819
Descent: 205
InvalidEm: 0
LayerCount: 2
Layer: 0 0 "Back" 1
Layer: 1 0 "Fore" 0
XUID: [1021 418 -247350770 1418946]
StyleMap: 0x0000
FSType: 0
OS2Version: 0
OS2_WeightWidthSlopeOnly: 0
OS2_UseTypoMetrics: 1
CreationTime: 1696024240
ModificationTime: 1703018481
OS2TypoAscent: 0
OS2TypoAOffset: 1
OS2TypoDescent: 0
OS2TypoDOffset: 1
OS2TypoLinegap: 92
OS2WinAscent: 0
OS2WinAOffset: 1
OS2WinDescent: 0
OS2WinDOffset: 1
HheadAscent: 0
HheadAOffset: 1
HheadDescent: 0
HheadDOffset: 1
MarkAttachClasses: 1
DEI: 91125
Encoding: ISO8859-1
UnicodeInterp: none
NameList: AGL For New Fonts
DisplaySize: -48
AntiAlias: 1
FitToEm: 0
WinInfo: 0 38 13
BeginPrivate: 0
EndPrivate
BeginChars: 256 40

StartChar: A
Encoding: 65 65 0
Width: 976
Flags: HW
HStem: 219 105<379 605> 240 84<393 609> 529 118<544 617>
VStem: 610 66<348 480> 650 26<483 513> 658 88<108 152>
LayerCount: 2
Back
Fore
SplineSet
607 240 m 0x64
 565 240 470 219 389 219 c 0
 352 219 331 224 331 234 c 0
 331 241 328 243 324 243 c 0
 315 243 299 231 281 209 c 0
 253 176 134 47 99 47 c 0
 87 47 77 55 64 72 c 2
 43 101 l 1
 108 158 l 2
 144 189 206 253 245 298 c 0
 432 515 528 619 554 633 c 0
 572 643 587 648 598 648 c 0
 636 648 632 588 652 588 c 0
 653 588 653 588 654 588 c 0
 667 588 674 535 676 431 c 1
 676 348 l 1xb0
 758 348 l 1
 781 350 798 358 811 358 c 0
 825 358 854 357 854 341 c 0
 854 331 835 318 782 291 c 0
 720 259 706 251 706 233 c 0
 706 225 715 190 715 157 c 0
 715 114 746 126 746 119 c 0
 746 113 724 98 707 60 c 0
 698 40 683 30 665 30 c 0
 649 30 609 42 609 67 c 0
 609 101 658 108 658 148 c 0
 658 155 658 164 656 175 c 0
 648 224 646 240 607 240 c 0x64
590 469 m 0
 586 510 579 529 568 529 c 0
 562 529 554 523 544 511 c 0
 518 479 378 336 378 323 c 1
 610 323 l 1x70
 610 370 l 1
 606 391 593 436 590 469 c 0
642 499 m 0
 642 487 643 483 645 483 c 0
 647 483 650 490 650 499 c 0x28
 650 507 647 516 645 516 c 0
 643 516 642 511 642 499 c 0
EndSplineSet
Validated: 1
EndChar

StartChar: B
Encoding: 66 66 1
Width: 575
Flags: HW
HStem: -8 108<229 357> 517 129<120 232>
VStem: 133 68<85 454> 259 68<349 418> 405 80<135 201>
LayerCount: 2
Back
Fore
SplineSet
109 608 m 0
 109 626 113 646 128 646 c 0
 131 646 134 645 138 643 c 0
 170 630 274 627 335 591 c 0
 377 566 403 538 403 494 c 1
 368 359 l 1
 409 321 l 2
 466 269 485 238 485 192 c 0
 485 25 305 -8 263 -8 c 0
 235 -8 226 5 226 36 c 0
 226 41 226 46 226 52 c 0
 229 91 230 100 252 100 c 0
 263 100 275 98 285 98 c 0
 336 98 405 136 405 166 c 0
 405 177 373 217 333 254 c 0
 283 300 259 333 259 366 c 0
 259 389 271 412 292 440 c 2
 322 479 l 1
 294 499 l 2
 277 511 249 517 225 517 c 0
 185 517 185 504 185 490 c 0
 185 439 201 391 201 235 c 0
 201 163 197 99 189 84 c 0
 182 71 169 62 158 62 c 0
 137 62 134 83 133 217 c 0
 132 404 109 550 109 608 c 0
357 408 m 0
 357 414 349 418 339 418 c 0
 330 418 327 415 327 411 c 0
 327 405 336 398 345 398 c 0
 352 398 357 402 357 408 c 0
EndSplineSet
Validated: 1
EndChar

StartChar: C
Encoding: 67 67 2
Width: 691
Flags: HW
HStem: -9 90<268 460>
VStem: 116 81<161 361>
LayerCount: 2
Back
Fore
SplineSet
348 81 m 0
 434 81 501 94 522 94 c 0
 537 94 542 90 542 82 c 0
 542 36 432 -9 334 -9 c 0
 320 -9 306 -8 293 -6 c 0
 189 10 116 125 116 255 c 0
 116 277 121 440 251 563 c 0
 288 597 311 612 331 612 c 0
 331 612 368 612 368 592 c 0
 368 578 352 555 318 517 c 0
 238 427 197 333 197 252 c 0
 197 198 215 150 253 114 c 0
 282 86 296 81 348 81 c 0
EndSplineSet
Validated: 1
EndChar

StartChar: D
Encoding: 68 68 3
Width: 788
Flags: HW
HStem: -138 145<142 265> 46 55<235 258> 59 28<231 249> 583 102<211 321>
VStem: 135 70<274 581> 150 81<8 59> 549 113<256 376>
LayerCount: 2
Back
Fore
SplineSet
150 21 m 0x96
 150 39 135 532 135 537 c 0x9a
 135 612 142 620 158 638 c 0
 170 652 202 685 248 685 c 0
 332 685 468 606 584 485 c 0
 638 429 663 391 663 344 c 0
 663 311 651 275 628 227 c 0
 585 134 537 88 372 -21 c 0
 304 -66 242 -109 233 -116 c 0
 221 -126 180 -138 155 -138 c 0
 131 -138 117 -128 117 -113 c 0
 117 -103 122 -91 134 -78 c 0
 145 -66 150 -50 150 21 c 0x96
239 6 m 0
 291 6 549 212 549 320 c 0
 549 356 522 390 461 450 c 0
 412 498 357 544 337 554 c 0
 304 571 254 583 229 583 c 0
 221 583 215 582 213 580 c 0
 208 575 205 536 205 475 c 0
 205 408 213 87 232 87 c 0xba
 234 87 245 101 254 101 c 0
 259 101 261 97 261 88 c 0
 261 79 256 46 249 46 c 0xda
 244 46 239 59 235 59 c 0
 232 59 230 51 230 35 c 0xb6
 230 14 231 6 239 6 c 0
EndSplineSet
Validated: 1
EndChar

StartChar: E
Encoding: 69 69 4
Width: 685
Flags: HW
HStem: -39 110<280 393> 218 137<318 381> 520 121<387 540>
VStem: 178 81<90 204> 259 79<367 566> 370 197<543 616>
LayerCount: 2
Back
Fore
SplineSet
259 477 m 0xec
 259 522 265 587 295 587 c 0
 305 587 316 580 327 567 c 0
 335 558 338 531 338 500 c 0xec
 338 421 317 367 317 366 c 0
 317 357 325 355 345 355 c 0
 364 355 387 364 397 375 c 0
 408 388 420 395 431 395 c 0
 452 395 469 375 469 348 c 0
 469 282 358 218 322 218 c 0
 281 218 259 194 259 149 c 0
 259 100 289 70 329 70 c 0
 377 70 397 106 431 106 c 0
 452 106 464 91 464 70 c 0
 464 48 451 18 421 -7 c 0
 392 -31 376 -39 344 -39 c 0
 216 -39 178 12 178 140 c 0xf4
 178 243 259 384 259 477 c 0xec
370 601 m 0
 370 639 390 641 412 641 c 0
 414 641 567 641 567 586 c 0
 567 583 566 520 465 520 c 0
 395 520 385 538 377 562 c 0
 373 574 370 589 370 601 c 0
EndSplineSet
Validated: 1
EndChar

StartChar: F
Encoding: 70 70 5
Width: 696
Flags: HW
HStem: 213 100<336 434> 448 101<246 545>
VStem: 129 106<399 552>
LayerCount: 2
Back
Fore
SplineSet
397 213 m 0
 358 213 315 244 286 244 c 0
 261 244 259 217 259 149 c 0
 259 75 254 51 236 28 c 0
 226 15 217 8 210 8 c 0
 190 8 182 64 175 208 c 0
 162 456 129 488 129 548 c 0
 129 573 131 582 142 582 c 0
 155 582 195 569 201 559 c 0
 204 554 256 550 321 550 c 0
 322 550 351 550 351 550 c 0
 477 550 564 534 564 510 c 0
 564 504 560 487 554 472 c 0
 545 450 535 448 410 448 c 0
 279 448 235 438 235 406 c 0
 235 392 325 336 385 313 c 0
 433 295 446 288 446 270 c 0
 446 265 445 213 397 213 c 0
EndSplineSet
Validated: 1
EndChar

StartChar: G
Encoding: 71 71 6
Width: 744
Flags: HW
HStem: -31 155<271 385>
VStem: 79 125<180 381>
LayerCount: 2
Back
Fore
SplineSet
398 646 m 0
 404 646 413 647 413 632 c 0
 413 590 292 519 289 515 c 0
 230 441 204 391 204 319 c 0
 204 316 204 313 204 310 c 0
 204 262 205 214 232 168 c 0
 248 142 259 123 276 123 c 0
 296 123 303 147 307 158 c 1
 335 187 363 194 366 225 c 1
 369 231 373 234 379 234 c 0
 395 234 420 217 455 217 c 0
 465 217 472 215 473 214 c 0
 497 199 555 194 590 194 c 0
 620 194 632 192 637 191 c 5
 627 180 599 156 570 141 c 24
 552 131 543 131 517 126 c 0
 465 115 460 96 446 22 c 0
 441 -8 411 -31 360 -31 c 0
 318 -31 268 -15 227 19 c 0
 133 88 79 188 79 282 c 0
 79 308 83 332 91 357 c 0
 113 422 221 573 267 596 c 0
 286 606 359 646 398 646 c 0
EndSplineSet
Validated: 1
EndChar

StartChar: H
Encoding: 72 72 7
Width: 948
Flags: HW
HStem: 307 120<458 624> 334 134<299 458>
VStem: 152 118<-24 271> 154 91<135 521> 626 112<194 307> 711 78<615 664>
LayerCount: 2
Back
Fore
SplineSet
245 331 m 0x10
 245 216 269 80 269 31 c 0
 269 -1 261 -11 241 -32 c 0
 217 -57 200 -71 187 -71 c 0
 161 -71 152 -14 152 133 c 0x20
 152 177 153 228 154 289 c 0
 159 519 165 579 186 620 c 0
 203 652 210 666 222 666 c 0
 231 666 243 658 264 645 c 0
 292 627 301 607 301 568 c 0
 301 530 295 521 288 521 c 0
 283 521 276 526 270 526 c 0
 262 526 255 517 253 476 c 0
 253 475 245 345 245 331 c 0x10
340 469 m 0x48
 406 469 521 427 579 427 c 0
 628 427 638 456 662 536 c 0
 680 596 703 654 711 664 c 0
 721 676 728 682 736 682 c 0
 752 682 788 647 788 626 c 0x84
 788 621 787 617 784 614 c 0
 762 590 738 445 738 337 c 0
 738 254 745 219 776 161 c 0
 796 123 807 91 807 67 c 0
 807 38 791 21 760 21 c 0
 692 21 655 87 626 251 c 1
 626 307 l 1
 523 307 l 2x88
 472 307 395 320 354 334 c 0
 286 357 279 365 279 404 c 0
 279 449 294 469 340 469 c 0x48
EndSplineSet
Validated: 1
EndChar

StartChar: I
Encoding: 73 73 8
Width: 396
Flags: HW
HStem: -111 22G<186 216> 628 20G<128 152>
VStem: 111 83<478 637> 148 85<-19 459>
LayerCount: 2
Back
Fore
SplineSet
111 611 m 0xe0
 111 628 116 648 140 648 c 0
 164 648 194 625 194 603 c 0xe0
 194 595 203 535 215 470 c 0
 228 398 233 325 233 207 c 0
 233 189 233 171 233 151 c 0
 233 141 233 131 233 120 c 0
 229 -99 227 -111 205 -111 c 0
 167 -111 159 -64 148 232 c 0xd0
 142 379 132 520 124 544 c 0
 115 572 111 594 111 611 c 0xe0
EndSplineSet
Validated: 1
EndChar

StartChar: J
Encoding: 74 74 9
Width: 872
Flags: HW
HStem: -139 101<99 330> 560 105<454 726 726 794>
VStem: 324 103<469 550> 492 120<64 188>
LayerCount: 2
Back
Fore
SplineSet
427 544 m 4
 427 539 429 519 436 508 c 0
 442 499 439 483 458 454 c 0
 466 442 471 422 478 415 c 0
 482 411 482 412 486 403 c 0
 495 382 565 281 577 252 c 0
 578 245 583 237 587 228 c 0
 590 222 592 217 595 210 c 0
 600 176 612 186 612 114 c 0
 612 113 611 88 610 74 c 0
 607 70 607 67 604 57 c 0
 600 43 587 31 574 10 c 0
 557 -18 459 -84 413 -104 c 0
 411 -105 324 -139 252 -139 c 0
 201 -139 124 -134 107 -129 c 0
 82 -122 73 -119 61 -114 c 1
 60 -108 57 -105 54 -95 c 0
 50 -82 57 -69 57 -69 c 24
 59 -65 63 -64 66 -61 c 24
 68 -59 68 -57 70 -55 c 24
 81 -44 84 -43 112 -34 c 24
 118 -32 123 -27 128 -26 c 1
 137 -33 144 -38 193 -38 c 0
 237 -38 255 -32 282 -30 c 0
 301 -28 318 -15 324 -15 c 0
 324 -18 325 -22 329 -22 c 0
 331 -22 334 -20 335 -18 c 0
 341 -18 342 -10 342 -8 c 0
 367 -4 403 15 417 24 c 0
 418 23 420 23 421 23 c 0
 432 23 451 40 453 50 c 1
 475 67 496 90 496 102 c 0
 496 106 496 107 492 111 c 1
 492 118 492 118 492 119 c 0
 492 143 469 196 449 223 c 0
 439 237 433 254 426 262 c 0
 421 264 410 289 397 307 c 0
 390 317 339 429 336 448 c 0
 332 474 321 480 321 510 c 0
 321 531 324 523 324 532 c 24
 324 539 326 544 322 550 c 24
 317 559 277 551 255 580 c 24
 249 587 245 570 245 601 c 0
 245 602 l 2
 245 621 238 610 238 636 c 0
 238 665 244 670 248 674 c 0
 252 675 292 702 292 702 c 2
 292 703 l 1
 305 703 302 707 310 707 c 0
 313 707 323 705 326 702 c 0
 331 698 343 695 404 690 c 0
 459 685 453 684 454 684 c 0
 454 684 l 2
 456 684 509 682 625 672 c 0
 651 670 637 665 693 664 c 0
 771 663 790 649 795 641 c 0
 800 632 805 630 811 627 c 1
 811 614 811 612 809 599 c 1
 800 598 794 597 794 589 c 0
 794 586 795 584 799 576 c 1
 789 569 783 564 781 561 c 0
 777 556 776 554 726 554 c 1
 726 557 598 560 524 560 c 0
 494 560 427 549 427 544 c 4
EndSplineSet
Validated: 1
EndChar

StartChar: K
Encoding: 75 75 10
Width: 797
Flags: HW
HStem: 418 83<403 486>
VStem: 171 76<124 218>
LayerCount: 2
Back
Fore
SplineSet
143 674 m 0
 143 684 143 704 171 704 c 0
 183 704 196 699 205 689 c 0
 219 673 238 541 238 462 c 0
 238 434 239 425 246 425 c 0
 248 425 452 501 477 501 c 0
 494 501 518 481 518 473 c 0
 518 465 486 451 486 435 c 0
 486 429 473 421 457 418 c 0
 407 409 256 358 256 350 c 0
 256 341 434 168 511 103 c 0
 596 31 617 14 617 2 c 0
 617 2 603 -40 584 -40 c 0
 541 -40 269 219 254 219 c 0
 250 219 247 202 247 181 c 0
 247 151 242 139 224 123 c 0
 210 111 200 104 192 104 c 0
 177 104 173 130 171 192 c 0
 163 467 160 531 150 599 c 0
 146 628 143 657 143 674 c 0
EndSplineSet
Validated: 1
EndChar

StartChar: L
Encoding: 76 76 11
Width: 721
Flags: HW
HStem: -58 117<405 502>
VStem: 230 123<126 648>
LayerCount: 2
Back
Fore
SplineSet
589 132 m 0
 599 132 600 117 600 111 c 0
 600 83 579 38 545 -8 c 0
 515 -48 502 -58 470 -58 c 0
 425 -58 344 -44 297 7 c 0
 250 58 237 140 232 410 c 0
 231 473 230 519 230 555 c 0
 230 640 234 659 245 668 c 0
 256 677 272 682 287 682 c 0
 338 682 345 647 353 372 c 0
 359 160 361 140 385 105 c 0
 406 74 425 59 447 59 c 0
 494 59 555 132 589 132 c 0
EndSplineSet
Validated: 1
EndChar

StartChar: M
Encoding: 77 77 12
Width: 1324
Flags: HW
HStem: -47 113<1155 1223> 275 110<624 717> 515 104<434 509> 552 132<1016 1093>
VStem: 1049 103<68 375> 1063 117<214 551> 1065 175<-23 57>
LayerCount: 2
Back
Fore
SplineSet
1152 110 m 0xd8
 1152 81 1159 66 1188 66 c 0
 1219 66 1240 44 1240 8 c 0
 1240 -45 1154 -47 1138 -47 c 0
 1105 -47 1090 -38 1065 14 c 0xd2
 1054 37 1049 56 1049 101 c 0xd8
 1049 172 1063 285 1063 417 c 0
 1063 540 1049 552 1036 552 c 0xd4
 1015 552 931 474 899 444 c 0
 745 298 708 275 649 275 c 0
 600 275 562 300 536 418 c 0
 531 443 522 466 514 483 c 0
 501 511 491 515 478 515 c 0
 445 515 393 474 286 253 c 0
 219 114 194 74 191 70 c 0
 184 67 137 52 116 52 c 0
 101 52 101 57 101 65 c 0
 101 131 293 467 309 492 c 0
 365 579 428 619 483 619 c 0xe4
 544 619 601 569 628 463 c 0
 631 449 649 385 676 385 c 0
 699 385 762 445 771 453 c 0
 871 551 974 637 1020 664 c 0
 1044 677 1063 684 1080 684 c 0
 1106 684 1128 669 1152 633 c 0
 1173 600 1180 586 1180 534 c 0xd4
 1180 436 1152 114 1152 110 c 0xd8
EndSplineSet
Validated: 1
EndChar

StartChar: N
Encoding: 78 78 13
Width: 1024
Flags: HW
HStem: 105 89<554 666>
VStem: 906 83<519 611>
LayerCount: 2
Back
Fore
SplineSet
906 569 m 0
 927 619 957 655 975 655 c 0
 984 655 989 647 989 627 c 0
 989 602 980 557 957 489 c 0
 925 393 825 105 605 105 c 0
 581 105 563 111 535 127 c 0
 467 166 461 186 415 395 c 0
 412 409 405 421 400 421 c 0
 383 421 334 316 291 189 c 0
 236 25 217 -7 197 -7 c 0
 175 -7 125 13 125 25 c 0
 125 42 163 64 227 255 c 0
 276 399 330 503 372 531 c 0
 383 538 391 542 398 542 c 0
 406 542 414 538 428 529 c 0
 464 506 482 463 513 333 c 0
 526 278 544 225 554 214 c 0
 566 201 583 194 601 194 c 0
 648 194 711 235 768 308 c 0
 815 368 844 423 906 569 c 0
EndSplineSet
Validated: 1
EndChar

StartChar: O
Encoding: 79 79 14
Width: 841
Flags: HW
HStem: 4 83<313 473>
VStem: 139 95<169 335> 552 116<177 393>
LayerCount: 2
Back
Fore
SplineSet
139 228 m 0
 139 481 366 565 447 565 c 0
 464 565 475 561 475 553 c 0
 475 547 479 545 487 545 c 0
 500 545 522 551 544 551 c 0
 569 551 593 544 608 517 c 0
 628 479 667 312 667 256 c 0
 667 186 646 133 598 82 c 0
 570 53 549 37 543 37 c 0
 542 37 541 38 541 39 c 0
 541 51 584 95 584 108 c 0
 584 109 583 110 582 110 c 0
 568 110 503 18 483 17 c 0
 459 16 404 4 370 4 c 0
 308 4 256 31 199 90 c 0
 157 133 139 172 139 228 c 0
391 88 m 0
 413 88 552 94 552 272 c 0
 552 357 519 468 509 485 c 2
 493 513 l 1
 403 464 l 2
 287 401 234 335 234 254 c 0
 234 157 306 88 391 88 c 0
586 157 m 0
 586 143 587 138 589 138 c 0
 591 138 594 147 594 157 c 0
 594 166 591 175 589 175 c 0
 587 175 586 171 586 157 c 0
EndSplineSet
Validated: 1
EndChar

StartChar: P
Encoding: 80 80 15
Width: 781
Flags: HW
HStem: 182 80<98 200> 544 104<245 417>
VStem: 168 66<-59 67> 204 53<38 166> 566 69<333 431>
LayerCount: 2
Back
Fore
SplineSet
275 544 m 0xd8
 254 544 227 519 209 519 c 0
 198 519 194 529 194 549 c 0
 194 605 263 648 316 648 c 0
 421 648 635 533 635 406 c 0
 635 287 595 211 308 176 c 0
 275 172 257 167 257 161 c 0xd8
 257 157 263 158 263 139 c 0
 263 126 261 106 255 82 c 0
 247 47 237 3 234 -14 c 0
 228 -46 203 -75 190 -75 c 0
 190 -75 168 -71 168 -43 c 0xe8
 168 -3 204 107 204 152 c 0
 204 160 203 165 200 166 c 0
 193 168 165 175 139 182 c 0
 105 191 91 201 91 215 c 0
 91 248 116 262 177 262 c 0
 237 262 238 262 250 305 c 0
 265 360 282 483 282 527 c 0
 282 544 280 544 275 544 c 0xd8
439 517 m 0
 407 530 388 539 375 539 c 0
 354 539 352 516 343 454 c 0
 335 404 321 340 313 312 c 2
 298 262 l 1
 328 262 l 2
 413 263 551 317 563 354 c 0
 565 360 566 366 566 372 c 0
 566 423 511 488 439 517 c 0
EndSplineSet
Validated: 1
EndChar

StartChar: Q
Encoding: 81 81 16
Width: 859
Flags: HW
HStem: 51 95<230 359> 585 109<375 516> 614 90<484 583>
VStem: 121 16<265 332> 165 33<332 403> 571 104<407 612>
LayerCount: 2
Back
Fore
SplineSet
493 690 m 0xdc
 529 690 518 705 570 705 c 0xbc
 597 705 627 700 640 692 c 0
 653 684 674 582 674 528 c 0
 674 433 615 267 566 222 c 0
 557 214 552 210 547 210 c 0
 534 210 520 257 509 257 c 0
 507 257 507 253 507 252 c 0
 507 241 552 185 608 126 c 0
 676 55 707 14 707 -9 c 0
 707 -33 668 -34 664 -34 c 0
 640 -34 617 -18 557 40 c 2
 476 118 l 1
 434 90 l 2
 397 65 349 51 303 51 c 0
 275 51 248 55 223 65 c 0
 181 81 165 96 145 137 c 0
 130 169 121 221 121 267 c 0
 121 330 137 352 139 352 c 0
 140 352 141 349 141 345 c 0
 141 332 137 305 137 286 c 0
 137 274 138 265 143 265 c 0
 153 265 165 340 165 385 c 0
 165 398 164 408 162 414 c 0
 157 427 161 434 174 434 c 0
 185 434 190 440 186 447 c 0
 185 449 184 452 184 455 c 0
 184 494 262 608 317 645 c 0
 362 676 416 694 454 694 c 0
 474 694 475 690 493 690 c 0xdc
571 547 m 0
 571 578 567 614 539 614 c 0
 516 614 502 590 454 590 c 0
 353 589 249 459 217 293 c 0
 211 264 208 245 208 229 c 0
 208 193 228 147 287 147 c 0
 307 147 329 152 351 163 c 0
 407 192 498 290 529 354 c 0
 553 405 571 488 571 547 c 0
201 330 m 0
 208 330 217 346 217 363 c 0
 217 390 281 524 310 557 c 0
 319 567 324 576 324 581 c 0
 324 582 323 585 320 585 c 0xdc
 305 585 253 509 231 451 c 0
 209 395 197 354 197 338 c 0
 197 333 198 330 201 330 c 0
387 105 m 0
 387 104 387 102 390 102 c 0
 401 102 440 143 440 154 c 0
 440 156 439 157 437 157 c 0
 423 157 387 118 387 105 c 0
EndSplineSet
Validated: 1
EndChar

StartChar: R
Encoding: 82 82 17
Width: 911
Flags: HW
HStem: 38 68<677 813> 562 69<377 458>
VStem: 160 84<132 237 237 351 394 458>
LayerCount: 2
Back
Fore
SplineSet
160 315 m 0
 160 454 124 477 124 531 c 0
 124 549 152 551 164 551 c 0
 206 551 205 528 227 528 c 0
 256 528 284 578 344 611 c 0
 379 630 450 631 451 631 c 0
 500 631 514 624 534 603 c 0
 560 576 571 552 571 529 c 0
 571 491 538 449 464 407 c 0
 383 361 383 362 383 349 c 0
 383 317 458 234 506 202 c 0
 574 156 717 106 788 106 c 0
 805 106 821 102 821 85 c 0
 821 79 819 70 813 59 c 0
 806 46 798 38 754 38 c 0
 601 38 463 121 329 263 c 1
 329 262 329 262 328 262 c 0
 318 262 246 339 246 351 c 1
 246 338 245 237 245 237 c 2
 244 136 210 5 183 -24 c 0
 173 -35 163 -40 154 -40 c 0
 130 -40 112 -10 112 22 c 0
 112 75 160 145 160 315 c 0
279 543 m 1025
309 490 m 0
 302 480 279 468 279 468 c 0
 262 459 243 437 243 418 c 0
 243 396 255 394 260 394 c 0
 268 394 275 397 299 421 c 0
 356 477 459 520 459 544 c 0
 459 544 460 562 440 562 c 0
 412 562 330 520 309 490 c 0
EndSplineSet
Validated: 1
EndChar

StartChar: S
Encoding: 83 83 18
Width: 537
Flags: HW
HStem: -22 81<75 239>
VStem: 69 105<380 462> 303 97<110 187>
LayerCount: 2
Back
Fore
SplineSet
166 -22 m 0
 131 -22 64 -22 64 16 c 0
 64 39 101 58 158 59 c 0
 203 60 229 68 262 93 c 0
 288 113 303 129 303 147 c 0
 303 176 263 211 168 281 c 0
 98 333 69 368 69 412 c 0
 69 482 137 564 218 606 c 0
 254 625 275 634 289 634 c 0
 311 634 323 602 323 589 c 0
 323 520 174 484 174 423 c 0
 174 343 401 294 401 156 c 0
 401 115 385 -22 166 -22 c 0
EndSplineSet
Validated: 1
EndChar

StartChar: T
Encoding: 84 84 19
Width: 776
Flags: HW
HStem: 538 104<431 570> 599 123<211 279>
VStem: 317 101<7 431> 318 112<179 534> 353 69<-31 14>
LayerCount: 2
Back
Fore
SplineSet
157 681 m 0x50
 157 685 180 722 201 722 c 0x50
 227 722 311 682 486 642 c 0
 587 619 611 613 611 566 c 0
 611 564 611 562 611 560 c 0
 611 542 609 536 563 536 c 0
 450 536 430 536 430 536 c 1
 430 341 l 1x90
 427 275 418 221 418 177 c 0xa0
 418 79 422 30 422 3 c 0
 422 -13 422 -33 391 -33 c 0
 372 -33 353 -24 353 -11 c 0x88
 353 -2 345 8 334 12 c 0
 320 17 317 40 317 176 c 4xa0
 317 192 318 415 318 417 c 4
 318 588 309 579 255 599 c 0
 224 611 200 626 200 634 c 0
 200 655 157 670 157 681 c 0x50
EndSplineSet
Validated: 1
EndChar

StartChar: U
Encoding: 85 85 20
Width: 571
Flags: HW
HStem: 60 111<245 339>
VStem: 80 103<210 374> 80 51<269 386> 160 20<277 327> 409 88<255 435>
LayerCount: 2
Back
Fore
SplineSet
409 369 m 0xb8
 409 445 390 455 390 484 c 0
 390 501 399 510 410 510 c 0
 446 510 463 446 489 415 c 0
 495 408 497 387 497 361 c 0
 497 306 486 228 471 216 c 0
 462 208 455 196 455 187 c 0
 455 160 376 82 335 68 c 0
 318 63 301 60 285 60 c 0
 161 60 80 206 80 363 c 0xc8
 80 385 85 387 100 387 c 0
 119 387 125 378 131 345 c 0
 140 293 161 239 173 239 c 0
 179 239 182 244 182 249 c 0
 182 255 178 262 171 267 c 0
 165 271 160 292 160 316 c 0
 160 318 160 320 160 322 c 2
 160 370 l 1
 180 304 l 1
 201 229 250 171 291 171 c 0
 325 171 371 214 393 267 c 0
 403 292 409 331 409 369 c 0xb8
209 197 m 0
 205 207 198 216 192 216 c 0
 186 216 183 215 183 212 c 0
 183 208 188 202 199 193 c 0
 213 181 215 181 209 197 c 0
EndSplineSet
Validated: 1
EndChar

StartChar: V
Encoding: 86 86 21
Width: 689
Flags: HW
HStem: 38 161<256 314>
LayerCount: 2
Back
Fore
SplineSet
81 425 m 0
 81 433 119 460 148 460 c 0
 188 460 218 415 252 311 c 0
 272 249 293 199 299 199 c 0
 315 199 463 536 494 559 c 0
 508 570 526 575 541 575 c 0
 564 575 573 563 573 557 c 0
 573 523 473 227 437 158 c 0
 404 94 338 38 286 38 c 0
 228 38 196 73 169 168 c 0
 157 211 132 285 114 331 c 0
 96 377 81 420 81 425 c 0
EndSplineSet
Validated: 1
EndChar

StartChar: W
Encoding: 87 87 22
Width: 804
Flags: HW
HStem: 49 138<461 535>
VStem: 38 123<259 390>
LayerCount: 2
Back
Fore
SplineSet
426 271 m 8
 433 242 447 225 467 203 c 0
 476 193 486 188 498 188 c 0
 501 188 504 187 507 188 c 8
 517 190 534 203 538 212 c 24
 542 220 544 224 547 232 c 24
 552 244 554 251 558 263 c 0
 566 286 562 276 575 303 c 0
 588 329 591 340 609 370 c 0
 618 384 618 379 634 404 c 0
 648 426 653 440 682 460 c 0
 689 465 696 471 712 471 c 0
 740 471 741 470 749 441 c 0
 752 430 754 416 754 402 c 0
 754 345 726 264 677 186 c 0
 629 110 577 49 495 49 c 0
 443 49 432 73 397 82 c 0
 386 85 368 103 350 129 c 0
 327 157 319 160 317 163 c 0
 304 163 238 85 166 85 c 0
 151 85 136 91 132 97 c 0
 122 111 97 109 62 150 c 0
 58 151 37 175 37 181 c 1
 38 237 l 2
 38 275 44 316 60 390 c 0
 83 498 89 512 122 531 c 0
 134 539 147 543 158 543 c 0
 176 543 167 540 171 536 c 24
 175 531 178 527 179 521 c 24
 182 498 182 487 182 464 c 24
 182 451 180 443 180 430 c 24
 180 416 181 406 181 392 c 24
 181 379 181 371 180 358 c 24
 177 328 175 312 169 282 c 24
 168 276 161 267 161 266 c 0
 161 263 165 259 171 259 c 0
 209 259 300 386 354 386 c 0
 396 386 404 356 426 271 c 8
EndSplineSet
Validated: 1
EndChar

StartChar: X
Encoding: 88 88 23
Width: 629
Flags: HW
VStem: 130 113<145 217>
LayerCount: 2
Back
Fore
SplineSet
130 129 m 0
 130 226 214 320 214 344 c 0
 214 359 165 431 110 497 c 0
 90 521 79 548 79 568 c 0
 79 583 85 595 98 598 c 0
 98 598 123 604 125 604 c 0
 137 604 218 514 247 467 c 0
 261 444 277 425 282 425 c 0
 295 425 361 498 381 535 c 0
 390 551 403 558 418 558 c 0
 437 558 459 546 477 522 c 2
 501 491 l 1
 461 461 l 2
 407 420 314 328 314 317 c 0
 314 316 315 316 316 316 c 0
 317 316 319 318 324 318 c 0
 393 318 460 13 460 -15 c 0
 460 -45 416 -55 413 -55 c 0
 395 -55 346 116 316 187 c 0
 306 211 294 223 281 223 c 0
 268 223 254 209 243 183 c 0
 224 137 177 88 153 88 c 0
 137 88 130 104 130 129 c 0
EndSplineSet
Validated: 1
EndChar

StartChar: Y
Encoding: 89 89 24
Width: 680
Flags: HW
HStem: 366 88<195 362>
VStem: 68 86<492 582> 255 84<94 191> 255 36<127 304> 307 44<193 295> 454 78<525 592>
LayerCount: 2
Back
Fore
SplineSet
340 19 m 0xe4
 306 19 255 83 255 169 c 0xe4
 255 224 268 307 281 323 c 0
 289 332 295 337 300 337 c 0
 305 337 308 330 308 319 c 0
 308 297 291 230 291 207 c 0
 291 198 293 191 296 191 c 0
 301 191 306 201 307 213 c 0
 310 253 332 315 342 315 c 0
 344 315 353 312 351 306 c 0xdc
 351 305 339 211 339 172 c 0
 339 111 373 89 373 57 c 0
 373 44 361 19 340 19 c 0xe4
472 606 m 0
 473 606 532 599 532 552 c 0
 532 493 452 401 359 375 c 0
 336 369 303 366 271 366 c 0
 236 366 203 370 186 377 c 0
 160 388 68 434 68 535 c 0
 68 571 83 587 117 587 c 0
 143 587 154 569 154 524 c 0
 154 498 209 453 271 453 c 0
 352 453 454 516 454 570 c 0
 454 597 461 606 472 606 c 0
EndSplineSet
Validated: 1
EndChar

StartChar: Z
Encoding: 90 90 25
Width: 735
Flags: HW
HStem: -52 114<233 417> -9 89<414 447> 606 111<175 471>
VStem: 111 117<57 148> 215 126<251 305>
LayerCount: 2
Back
Fore
SplineSet
407 493 m 0xa8
 407 494 401 498 401 503 c 0
 401 510 408 491 408 504 c 0
 408 517 474 584 474 607 c 0
 474 608 464 609 448 609 c 0
 407 609 325 606 263 606 c 0
 204 606 179 607 164 629 c 0
 158 638 158 638 166 652 c 0
 166 652 170 661 173 688 c 0
 176 713 193 717 247 717 c 0
 254 717 261 717 269 717 c 0
 517 713 518 714 532 709 c 0
 556 700 556 691 559 693 c 0
 560 694 577 685 577 675 c 0
 577 674 593 650 593 599 c 0
 593 572 583 571 583 561 c 0
 583 556 565 539 565 534 c 0
 565 531 565 531 562 531 c 0
 559 531 557 529 557 527 c 0
 557 522 540 503 540 501 c 0
 540 499 563 491 563 487 c 0
 563 482 580 489 578 483 c 0
 576 477 607 474 607 474 c 0
 608 474 608 471 608 466 c 0
 608 454 605 433 603 432 c 0
 601 431 600 429 600 426 c 0
 600 419 594 426 591 421 c 0
 587 414 560 405 545 405 c 0
 524 405 538 400 523 399 c 0
 508 398 508 392 483 392 c 0
 458 392 465 385 449 385 c 0
 428 385 385 323 384 322 c 0
 370 312 361 304 361 301 c 0
 361 294 341 283 341 272 c 0xa8
 341 266 341 265 338 269 c 0
 332 278 330 253 322 253 c 0
 320 253 318 251 318 248 c 0
 318 245 316 243 313 243 c 0
 305 243 314 231 308 234 c 0
 303 237 304 228 293 216 c 0
 289 211 285 206 285 204 c 0
 285 199 275 196 263 172 c 0
 258 163 254 153 252 150 c 0
 236 125 228 107 228 96 c 0
 228 71 282 62 317 62 c 0
 373 62 407 80 419 80 c 0
 422 80 424 82 424 84 c 0
 424 86 425 87 427 87 c 0
 431 87 455 113 464 113 c 0
 467 113 471 115 472 116 c 0
 474 120 500 121 502 117 c 0
 511 103 527 120 527 84 c 0
 527 40 514 49 514 37 c 0
 514 33 513 30 511 30 c 0
 509 30 469 -9 452 -9 c 0x70
 450 -9 446 -12 445 -14 c 0
 441 -20 385 -46 373 -46 c 0
 369 -46 365 -47 365 -49 c 0
 365 -50 341 -52 311 -52 c 0
 273 -52 225 -49 200 -39 c 0
 163 -24 137 -7 135 6 c 0
 134 14 119 35 115 35 c 0
 114 34 l 0
 110 30 118 50 113 50 c 0
 111 50 111 54 111 60 c 0xb0
 111 95 123 109 123 114 c 0
 123 124 137 156 137 163 c 0
 137 172 145 161 144 171 c 0
 144 174 145 176 146 176 c 0
 150 176 160 199 163 199 c 0
 166 199 166 210 178 225 c 0
 182 231 186 237 186 238 c 0
 186 243 215 278 215 281 c 0
 215 287 229 295 229 300 c 0
 229 305 265 339 265 346 c 0
 265 350 286 366 286 370 c 0
 286 371 286 371 286 371 c 0
 286 371 224 377 224 399 c 0
 224 402 226 407 229 411 c 0
 241 427 223 425 235 436 c 0
 239 440 242 447 242 455 c 0
 242 467 243 469 258 473 c 0
 263 474 274 478 279 481 c 0
 282 483 293 484 303 484 c 0
 329 484 311 491 360 491 c 0
 398 491 407 491 407 493 c 0xa8
EndSplineSet
Validated: 1
EndChar

StartChar: comma
Encoding: 44 44 27
Width: 315
Flags: HW
LayerCount: 2
Back
Fore
SplineSet
168 108 m 4
 168 146 158 215 158 246 c 4
 158 259 161 267 167 274 c 4
 173 281 180 287 190 287 c 4
 211 287 217 254 221 234 c 4
 225 210 227 178 227 146 c 4
 227 104 224 61 217 32 c 4
 208 0 196 -33 184 -59 c 4
 175 -81 166 -97 156 -106 c 4
 140 -121 125 -129 112 -129 c 4
 98 -129 95 -119 95 -113 c 4
 95 -104 100 -97 108 -89 c 4
 152 -45 168 67 168 108 c 4
EndSplineSet
Validated: 1
EndChar

StartChar: period
Encoding: 46 46 28
Width: 405
Flags: HW
LayerCount: 2
Back
Fore
SplineSet
159 86 m 4
 184 90 200 92 211 92 c 4
 229 92 233 86 242 70 c 4
 247 61 250 54 250 49 c 4
 250 41 244 34 229 21 c 4
 210 5 190 -3 171 -3 c 4
 141 -3 117 17 117 49 c 4
 117 52 118 56 118 59 c 4
 120 75 129 81 159 86 c 4
EndSplineSet
Validated: 1
EndChar

StartChar: semicolon
Encoding: 59 59 29
Width: 315
Flags: HW
LayerCount: 2
Fore
SplineSet
159 648 m 4
 184 652 200 654 211 654 c 4
 229 654 233 648 242 632 c 4
 247 623 250 616 250 611 c 4
 250 603 244 596 229 583 c 4
 210 567 190 559 171 559 c 4
 141 559 117 579 117 611 c 4
 117 614 118 618 118 621 c 4
 120 637 129 643 159 648 c 4
168 105 m 0
 168 143 158 212 158 243 c 0
 158 256 161 264 167 271 c 0
 173 278 180 284 190 284 c 0
 211 284 217 251 221 231 c 0
 225 207 227 175 227 143 c 0
 227 101 224 58 217 29 c 0
 208 -3 196 -36 184 -62 c 0
 175 -84 166 -100 156 -109 c 0
 140 -124 125 -132 112 -132 c 0
 98 -132 95 -122 95 -116 c 0
 95 -107 100 -100 108 -92 c 0
 152 -48 168 64 168 105 c 0
EndSplineSet
Validated: 1
EndChar

StartChar: zero
Encoding: 48 48 30
Width: 1024
Flags: H
LayerCount: 2
Back
Fore
SplineSet
446 624 m 0
 472 629 495 632 518 632 c 0
 617 632 686 579 762 453 c 0
 803 385 823 318 823 255 c 0
 823 124 736 10 569 -64 c 0
 513 -89 459 -101 411 -101 c 0
 356 -101 309 -85 278 -53 c 0
 240 -16 231 3 231 68 c 0
 231 79 232 92 232 106 c 0
 235 223 281 398 329 472 c 0
 345 497 369 539 383 567 c 0
 397 594 425 619 446 624 c 0
620 529 m 0
 544 565 496 584 466 584 c 0
 431 584 421 558 421 506 c 0
 421 479 403 439 382 419 c 0
 340 380 293 223 293 120 c 0
 293 26 357 -46 440 -46 c 0
 441 -46 442 -46 443 -46 c 0
 526 -43 607 -0 699 91 c 0
 753 146 767 162 767 211 c 0
 767 225 766 242 764 263 c 0
 756 362 682 499 620 529 c 0
EndSplineSet
Validated: 1
EndChar

StartChar: one
Encoding: 49 49 31
Width: 1024
Flags: H
LayerCount: 2
Back
Fore
SplineSet
164 676 m 0
 164 690 173 696 185 696 c 0
 204 696 233 680 247 653 c 0
 268 613 301 219 301 62 c 0
 301 27 300 4 296 -2 c 0
 290 -11 285 -16 280 -16 c 0
 257 -16 241 77 226 278 c 0
 216 426 197 570 185 601 c 0
 174 632 164 666 164 676 c 0
EndSplineSet
Validated: 1
EndChar

StartChar: two
Encoding: 50 50 32
Width: 1024
Flags: H
LayerCount: 2
Back
Fore
SplineSet
283 528 m 4
 294 541 299 549 313 549 c 4
 330 549 360 537 432 508 c 4
 539 466 646 385 646 346 c 4
 646 327 580 260 495 193 c 4
 476 178 465 167 465 158 c 4
 465 136 522 122 681 94 c 4
 798 72 858 53 858 43 c 4
 858 37 839 33 802 33 c 4
 779 33 750 34 714 37 c 4
 491 54 376 95 376 152 c 4
 376 173 392 197 425 223 c 4
 452 244 493 276 520 297 c 4
 547 318 567 343 567 356 c 4
 567 383 506 415 386 449 c 4
 303 473 272 486 272 505 c 4
 272 512 276 519 283 528 c 4
EndSplineSet
Validated: 1
EndChar

StartChar: three
Encoding: 51 51 33
Width: 1024
Flags: H
LayerCount: 2
Back
Fore
SplineSet
212 644 m 0
 220 658 290 669 365 669 c 0
 500 669 595 639 631 584 c 0
 643 566 649 536 649 502 c 0
 649 449 635 389 610 357 c 0
 589 329 577 308 577 290 c 0
 577 258 614 234 704 193 c 0
 809 145 838 118 844 65 c 0
 845 57 845 50 845 44 c 0
 845 0 821 -17 712 -67 c 0
 621 -108 550 -130 510 -130 c 0
 488 -130 475 -123 475 -108 c 0
 475 -95 505 -78 542 -69 c 0
 617 -50 749 38 749 70 c 0
 749 81 687 120 612 156 c 0
 519 201 478 231 478 276 c 0
 478 304 494 339 524 387 c 0
 551 432 574 491 574 517 c 0
 574 575 460 619 307 619 c 0
 247 619 211 627 211 640 c 0
 211 641 211 643 212 644 c 0
EndSplineSet
Validated: 1
EndChar

StartChar: four
Encoding: 52 52 34
Width: 1024
Flags: H
LayerCount: 2
Back
Fore
SplineSet
519 613 m 0
 526 631 539 646 547 646 c 0
 562 646 570 637 570 618 c 0
 570 601 563 574 549 536 c 0
 532 491 506 352 489 223 c 0
 472 94 457 -12 454 -15 c 0
 451 -18 448 -20 446 -20 c 0
 436 -20 431 1 431 37 c 0
 431 55 433 76 435 101 c 0
 441 158 446 230 446 259 c 0
 446 263 446 267 446 271 c 0
 446 311 440 314 394 322 c 0
 250 345 199 363 157 405 c 0
 127 436 117 453 117 485 c 0
 117 489 118 494 118 499 c 0
 121 535 134 557 145 557 c 0
 153 557 159 545 159 519 c 0
 159 431 228 384 384 366 c 2
 457 357 l 1
 482 469 l 2
 495 531 512 595 519 613 c 0
EndSplineSet
Validated: 1
EndChar

StartChar: five
Encoding: 53 53 35
Width: 1024
InSpiro: 1
Flags: H
LayerCount: 2
Back
Fore
SplineSet
432 624 m 0
 479 638 539 646 591 646 c 0
 641 646 684 639 705 626 c 0
 721 616 730 608 730 601 c 0
 730 586 683 576 561 560 c 0
 402 539 402 539 395 456 c 0
 393 433 392 412 392 394 c 0
 392 297 425 260 519 227 c 0
 607 197 623 182 629 120 c 0
 630 114 630 108 630 102 c 0
 630 62 615 30 585 2 c 0
 537 -43 194 -140 104 -140 c 0
 95 -140 88 -139 85 -137 c 0
 81 -134 78 -131 78 -128 c 0
 78 -114 136 -94 310 -46 c 0
 453 -6 561 62 561 112 c 0
 561 124 511 156 452 181 c 0
 362 221 339 245 318 324 c 0
 302 385 293 433 293 471 c 0
 293 556 335 595 432 624 c 0
  Spiro
    431.543 624.082 o
    534.049 642.763 o
    635.777 643.472 o
    704.609 625.984 o
    729.551 599.401 o
    687.603 580.127 o
    560.762 559.891 o
    449.029 541.87 o
    405.86 514.806 o
    394.61 455.724 o
    395.949 341.158 o
    433.975 271.483 o
    519.314 227.226 o
    585.328 200.015 o
    617.322 168.889 o
    629.028 120.485 o
    627.576 75.161 o
    613.029 35.9121 o
    585.143 2.08203 o
    440.376 -60.6223 o
    219.676 -121.875 o
    85.333 -136.634 o
    85.3239 -119.046 o
    152.635 -91.8006 o
    309.638 -45.8438 o
    438.565 1.66766 o
    527.685 57.6674 o
    560.762 111.952 o
    545.665 129.507 o
    506.353 154.684 o
    452.267 181.438 o
    382.175 218.379 o
    342.244 260.786 o
    317.963 324.066 o
    292.81 477.987 o
    327.826 570.48 o
    0 0 z
  EndSpiro
EndSplineSet
Validated: 1
EndChar

StartChar: six
Encoding: 54 54 36
Width: 1024
Flags: H
LayerCount: 2
Back
Fore
SplineSet
219 166 m 0
 223 170 230 172 237 172 c 0
 248 172 261 166 265 156 c 0
 267 151 268 147 268 143 c 0
 268 130 257 123 236 123 c 0
 219 123 213 129 213 141 c 0
 213 151 216 162 219 166 c 0
415 715 m 0
 427 729 443 742 450 742 c 0
 459 742 463 735 463 725 c 0
 463 714 458 701 447 692 c 0
 423 671 298 503 228 397 c 0
 129 245 79 127 79 49 c 0
 79 -9 105 -45 159 -59 c 0
 185 -66 206 -70 226 -70 c 0
 250 -70 272 -65 302 -56 c 0
 370 -35 404 -8 404 22 c 0
 404 38 394 55 372 71 c 0
 331 103 334 112 379 89 c 0
 428 64 453 39 453 14 c 0
 453 -15 422 -43 361 -74 c 0
 305 -102 250 -115 202 -115 c 0
 102 -115 30 -60 30 33 c 0
 30 40 30 46 31 53 c 0
 34 79 45 123 56 153 c 0
 102 272 252 506 415 715 c 0
EndSplineSet
Validated: 1
EndChar

StartChar: seven
Encoding: 55 55 37
Width: 1024
Flags: H
LayerCount: 2
Back
Fore
SplineSet
251 500 m 0
 261 517 395 527 522 527 c 0
 619 527 711 521 743 509 c 0
 769 499 790 472 790 447 c 0
 790 414 564 9 476 -114 c 0
 471 -121 461 -119 451 -108 c 0
 450 -107 450 -106 450 -104 c 0
 450 -79 500 33 568 159 c 0
 642 297 702 416 702 424 c 0
 702 432 626 439 535 439 c 0
 356 439 248 459 248 491 c 0
 248 494 249 497 251 500 c 0
EndSplineSet
Validated: 1
EndChar

StartChar: eight
Encoding: 56 56 38
Width: 1024
Flags: H
LayerCount: 2
Back
Fore
SplineSet
291 641 m 0
 318 668 339 682 362 682 c 0
 388 682 417 664 462 627 c 0
 500 596 517 579 517 551 c 0
 517 529 507 501 487 454 c 0
 461 391 414 319 383 294 c 0
 353 269 340 242 340 191 c 0
 340 168 343 141 348 107 c 0
 354 69 357 40 357 18 c 0
 357 -30 342 -49 304 -69 c 0
 261 -92 225 -103 197 -103 c 0
 155 -103 132 -78 132 -30 c 0
 132 4 145 50 170 106 c 0
 182 132 189 152 189 171 c 0
 189 204 169 234 121 290 c 0
 79 339 59 382 59 420 c 0
 59 473 97 518 175 559 c 0
 215 580 267 617 291 641 c 0
462 518 m 0
 462 537 431 552 394 552 c 0
 392 552 391 552 390 552 c 0
 261 547 133 484 133 426 c 0
 134 360 208 257 254 257 c 0
 294 257 462 469 462 518 c 0
297 56 m 0
 297 100 282 121 264 121 c 0
 243 121 219 97 201 49 c 0
 189 19 183 -3 183 -18 c 0
 183 -33 190 -40 204 -40 c 0
 215 -40 229 -36 248 -29 c 0
 275 -19 297 20 297 56 c 0
EndSplineSet
Validated: 1
EndChar

StartChar: nine
Encoding: 57 57 39
Width: 1024
Flags: H
LayerCount: 2
Back
Fore
SplineSet
162 497 m 0
 223 545 277 569 320 569 c 0
 367 569 403 541 424 484 c 0
 440 443 447 336 447 221 c 0
 447 37 435 -155 409 -168 c 0
 403 -169 l 0
 385 -169 363 -68 353 51 c 2
 335 272 l 1
 212 272 l 2
 120 272 72 309 72 360 c 0
 72 400 102 449 162 497 c 0
321 391 m 0
 356 420 371 444 371 461 c 0
 371 474 361 482 343 482 c 0
 322 482 291 472 254 446 c 0
 205 411 177 372 177 348 c 0
 177 334 187 325 208 325 c 0
 226 325 275 353 321 391 c 0
EndSplineSet
Validated: 1
EndChar
